<?xml version="1.0" standalone="no"?>
<!DOCTYPE svg PUBLIC "-//W3C//DTD SVG 20010904//EN"
 "http://www.w3.org/TR/2001/REC-SVG-20010904/DTD/svg10.dtd">
<svg version="1.0" xmlns="http://www.w3.org/2000/svg"
 width="980.000000pt" height="940.000000pt" viewBox="0 0 980.000000 940.000000"
 preserveAspectRatio="xMidYMid meet">

<g transform="translate(0.000000,940.000000) scale(0.100000,-0.100000)"
fill="#000000" stroke="none">
<path d="M4344 9366 c-131 -61 -229 -249 -209 -400 12 -94 38 -131 245 -341
108 -110 526 -536 928 -948 l732 -747 2 -3133 3 -3132 28 -57 c41 -84 107
-152 185 -190 61 -30 74 -33 162 -33 84 1 102 4 155 30 77 37 163 123 201 200
l29 60 3 1723 2 1722 160 0 160 0 0 -1679 c0 -1085 4 -1697 10 -1731 24 -125
113 -246 219 -297 49 -24 68 -27 151 -28 86 0 101 3 161 31 85 41 162 118 203
203 l31 66 5 3126 5 3125 905 937 c1031 1066 975 1000 975 1161 0 80 -3 98
-29 151 -36 73 -104 143 -171 175 -103 51 -261 36 -356 -32 -25 -18 -434 -435
-908 -925 l-862 -893 -498 0 -498 0 -876 898 c-483 493 -893 908 -913 921 -94
64 -246 81 -340 37z"/>
<path d="M6796 9064 c-235 -57 -447 -277 -501 -519 -13 -58 -16 -107 -13 -203
7 -204 59 -322 208 -473 69 -69 101 -94 170 -128 292 -143 629 -68 831 186 99
125 146 249 156 412 12 214 -62 401 -222 557 -129 126 -280 185 -469 183 -56
0 -127 -7 -160 -15z"/>
<path d="M2530 6535 c-111 -30 -216 -91 -299 -173 -121 -121 -178 -229 -207
-395 -37 -212 16 -426 144 -586 90 -111 190 -183 319 -228 69 -24 92 -27 208
-27 148 -1 205 13 320 72 84 44 223 178 273 264 120 204 129 496 22 708 -82
162 -219 285 -389 348 -55 21 -88 25 -201 28 -99 3 -150 0 -190 -11z"/>
<path d="M1860 4973 c-53 -9 -127 -36 -179 -67 -40 -23 -257 -239 -828 -826
-727 -746 -777 -800 -811 -869 -35 -71 -37 -80 -37 -170 1 -85 4 -102 28 -149
38 -73 97 -128 175 -165 60 -29 77 -32 157 -32 153 0 106 -40 785 665 162 168
358 371 437 451 l143 147 0 -774 0 -773 -677 -3 c-677 -3 -678 -3 -733 -25
-194 -80 -295 -285 -249 -505 25 -120 35 -132 688 -802 769 -790 857 -882 902
-937 84 -102 262 -154 393 -115 65 20 173 86 224 137 86 87 134 238 113 354
-23 125 -30 133 -462 575 -222 227 -405 416 -407 421 -2 5 494 9 1169 9 l1172
0 -69 -73 c-38 -39 -222 -229 -409 -420 -331 -338 -341 -350 -364 -415 -49
-136 -25 -317 58 -433 73 -102 206 -169 334 -169 141 1 231 43 343 160 45 47
404 421 797 832 517 539 723 760 741 796 53 104 52 252 -1 362 -36 75 -145
183 -220 218 l-58 27 -682 3 -683 3 0 759 c0 418 2 760 4 760 2 0 264 -264
581 -587 386 -394 593 -597 626 -617 90 -52 229 -44 328 18 51 33 119 110 142
161 43 97 31 232 -29 337 -32 56 -1489 1578 -1557 1627 -63 45 -159 87 -230
100 -56 11 -1594 14 -1655 4z"/>
</g>
</svg>
